<?xml version="1.0" encoding="utf-8"?>
<!-- Generator: Adobe Illustrator 22.0.1, SVG Export Plug-In . SVG Version: 6.00 Build 0)  -->
<svg version="1.1" id="Capa_1" xmlns="http://www.w3.org/2000/svg" xmlns:xlink="http://www.w3.org/1999/xlink" x="0px" y="0px"
	 viewBox="0 0 255.8 124.7" style="enable-background:new 0 0 255.8 124.7;" xml:space="preserve">
<style type="text/css">
	.st0{fill:#FFFFFF;}
	.st1{fill:#100C08;}
	.st2{fill:#E20D13;}
	.st3{fill:url(#SVGID_1_);}
	.st4{fill:#E1251B;}
	.st5{fill:url(#SVGID_2_);}
</style>
<path class="st0" d="M255.8,0c0,68.8-57.4,124.7-127.9,124.7S0,68.8,0,0"/>
<g>
	<path class="st1" d="M83.8,95.7c-0.2,0.2-0.5,0.3-0.8,0.5c-0.3,0.1-0.6,0.2-0.9,0.3c-0.3,0.1-0.7,0.1-1.1,0.1
		c-0.6,0-1.2-0.1-1.7-0.3c-0.5-0.2-1-0.5-1.4-0.9c-0.4-0.4-0.7-0.9-0.9-1.4c-0.2-0.5-0.3-1.1-0.3-1.7c0-0.6,0.1-1.2,0.3-1.7
		c0.2-0.5,0.5-1,0.9-1.4c0.4-0.4,0.9-0.7,1.4-1c0.5-0.2,1.1-0.3,1.8-0.3c0.4,0,0.7,0,1.1,0.1c0.3,0.1,0.6,0.2,0.9,0.3
		c0.3,0.1,0.5,0.3,0.7,0.4c0.2,0.2,0.4,0.3,0.6,0.5l-1,1.1c-0.3-0.3-0.7-0.6-1.1-0.8c-0.4-0.2-0.8-0.3-1.3-0.3
		c-0.4,0-0.8,0.1-1.1,0.2c-0.3,0.2-0.6,0.4-0.9,0.6c-0.3,0.3-0.4,0.6-0.6,1c-0.1,0.4-0.2,0.8-0.2,1.2c0,0.4,0.1,0.8,0.2,1.2
		c0.1,0.4,0.3,0.7,0.6,1c0.3,0.3,0.6,0.5,0.9,0.7c0.3,0.2,0.7,0.2,1.1,0.2c0.5,0,1-0.1,1.3-0.3c0.4-0.2,0.7-0.5,1.1-0.8l1,1
		C84.2,95.3,84,95.6,83.8,95.7z"/>
	<path class="st1" d="M94,93.9c-0.2,0.5-0.5,1-0.9,1.4c-0.4,0.4-0.9,0.7-1.4,1c-0.5,0.2-1.2,0.4-1.8,0.4s-1.3-0.1-1.8-0.3
		c-0.5-0.2-1-0.5-1.4-0.9c-0.4-0.4-0.7-0.9-0.9-1.4s-0.3-1.1-0.3-1.7c0-0.6,0.1-1.2,0.3-1.7s0.5-1,0.9-1.4c0.4-0.4,0.9-0.7,1.4-1
		c0.5-0.2,1.2-0.4,1.8-0.4s1.3,0.1,1.8,0.3c0.5,0.2,1,0.5,1.4,0.9s0.7,0.9,0.9,1.4s0.3,1.1,0.3,1.7C94.4,92.8,94.3,93.4,94,93.9z
		 M92.6,91c-0.1-0.4-0.3-0.7-0.6-1c-0.3-0.3-0.6-0.5-0.9-0.7c-0.4-0.2-0.8-0.2-1.2-0.2c-0.4,0-0.8,0.1-1.2,0.2
		c-0.4,0.2-0.7,0.4-0.9,0.6c-0.3,0.3-0.5,0.6-0.6,1c-0.1,0.4-0.2,0.8-0.2,1.2c0,0.4,0.1,0.8,0.2,1.2c0.1,0.4,0.3,0.7,0.6,1
		c0.3,0.3,0.6,0.5,0.9,0.7c0.4,0.2,0.8,0.2,1.2,0.2c0.4,0,0.8-0.1,1.2-0.2c0.4-0.2,0.7-0.4,0.9-0.6c0.3-0.3,0.5-0.6,0.6-1
		c0.1-0.4,0.2-0.8,0.2-1.2C92.8,91.8,92.7,91.4,92.6,91z"/>
	<path class="st1" d="M102.2,87.9h1.5v8.6h-1.3l-4.7-6.1v6.1h-1.5v-8.6h1.4l4.6,5.9V87.9z"/>
	<path class="st1" d="M107.2,90.6c0.1,0.1,0.2,0.2,0.3,0.3c0.2,0.1,0.4,0.2,0.6,0.3c0.3,0.1,0.6,0.2,1,0.3c0.4,0.1,0.8,0.2,1.2,0.4
		c0.3,0.1,0.6,0.3,0.9,0.5c0.2,0.2,0.4,0.4,0.5,0.7c0.1,0.3,0.2,0.6,0.2,0.9c0,0.4-0.1,0.8-0.2,1.1c-0.1,0.3-0.4,0.6-0.6,0.8
		c-0.3,0.2-0.6,0.4-1,0.5c-0.4,0.1-0.8,0.2-1.2,0.2c-0.7,0-1.3-0.1-1.9-0.3c-0.6-0.2-1.2-0.6-1.7-1l0.9-1.1c0.4,0.4,0.8,0.6,1.3,0.8
		c0.4,0.2,0.9,0.3,1.4,0.3c0.5,0,0.8-0.1,1.1-0.3c0.3-0.2,0.4-0.5,0.4-0.8c0-0.2,0-0.3-0.1-0.4c-0.1-0.1-0.2-0.2-0.3-0.3
		c-0.1-0.1-0.3-0.2-0.6-0.3c-0.2-0.1-0.6-0.2-1-0.3c-0.5-0.1-0.9-0.2-1.2-0.4c-0.4-0.1-0.7-0.3-0.9-0.5c-0.2-0.2-0.4-0.4-0.6-0.7
		c-0.1-0.3-0.2-0.6-0.2-1c0-0.4,0.1-0.7,0.2-1c0.1-0.3,0.3-0.6,0.6-0.8c0.3-0.2,0.6-0.4,0.9-0.5c0.4-0.1,0.7-0.2,1.2-0.2
		c0.6,0,1.2,0.1,1.7,0.3c0.5,0.2,1,0.5,1.4,0.8l-0.8,1.1c-0.4-0.3-0.8-0.5-1.2-0.7c-0.4-0.2-0.8-0.2-1.2-0.2c-0.4,0-0.8,0.1-1,0.3
		c-0.2,0.2-0.4,0.4-0.4,0.7C107.1,90.3,107.2,90.5,107.2,90.6z"/>
	<path class="st1" d="M117.2,96.5h-1.5v-7.2h-2.7v-1.4h7v1.4h-2.7V96.5z"/>
	<path class="st1" d="M127,96.5l-2.1-3H123v3h-1.5v-8.6h3.8c0.5,0,0.9,0.1,1.3,0.2c0.4,0.1,0.7,0.3,1,0.5c0.3,0.2,0.5,0.5,0.6,0.9
		c0.1,0.3,0.2,0.7,0.2,1.1c0,0.4-0.1,0.7-0.2,1c-0.1,0.3-0.2,0.5-0.4,0.7c-0.2,0.2-0.4,0.4-0.6,0.6c-0.2,0.2-0.5,0.3-0.8,0.3
		l2.3,3.2H127z M126.5,89.6c-0.3-0.2-0.7-0.4-1.3-0.4H123v2.9h2.2c0.5,0,1-0.1,1.3-0.4c0.3-0.3,0.5-0.6,0.5-1.1
		C126.9,90.2,126.8,89.9,126.5,89.6z"/>
	<path class="st1" d="M137.5,92.8c0,0.6-0.1,1.2-0.3,1.7c-0.2,0.5-0.4,0.9-0.7,1.2c-0.3,0.3-0.7,0.6-1.2,0.7c-0.5,0.2-1,0.2-1.5,0.2
		c-0.6,0-1.1-0.1-1.5-0.2c-0.4-0.2-0.8-0.4-1.2-0.7c-0.3-0.3-0.6-0.7-0.7-1.2c-0.2-0.5-0.3-1-0.3-1.6v-4.9h1.5v4.9
		c0,0.8,0.2,1.4,0.6,1.8c0.4,0.4,0.9,0.6,1.6,0.6c0.7,0,1.2-0.2,1.6-0.6c0.4-0.4,0.6-1,0.6-1.8v-4.9h1.5V92.8z"/>
	<path class="st1" d="M146.4,95.7c-0.2,0.2-0.5,0.3-0.8,0.5c-0.3,0.1-0.6,0.2-0.9,0.3c-0.3,0.1-0.7,0.1-1.1,0.1
		c-0.6,0-1.2-0.1-1.7-0.3c-0.5-0.2-1-0.5-1.4-0.9c-0.4-0.4-0.7-0.9-0.9-1.4c-0.2-0.5-0.3-1.1-0.3-1.7c0-0.6,0.1-1.2,0.3-1.7
		c0.2-0.5,0.5-1,0.9-1.4c0.4-0.4,0.9-0.7,1.4-1c0.5-0.2,1.1-0.3,1.8-0.3c0.4,0,0.7,0,1.1,0.1c0.3,0.1,0.6,0.2,0.9,0.3
		c0.3,0.1,0.5,0.3,0.7,0.4c0.2,0.2,0.4,0.3,0.6,0.5l-1,1.1c-0.3-0.3-0.7-0.6-1.1-0.8c-0.4-0.2-0.8-0.3-1.3-0.3
		c-0.4,0-0.8,0.1-1.1,0.2c-0.3,0.2-0.6,0.4-0.9,0.6c-0.3,0.3-0.4,0.6-0.6,1c-0.1,0.4-0.2,0.8-0.2,1.2c0,0.4,0.1,0.8,0.2,1.2
		c0.1,0.4,0.3,0.7,0.6,1c0.3,0.3,0.6,0.5,0.9,0.7c0.3,0.2,0.7,0.2,1.1,0.2c0.5,0,1-0.1,1.3-0.3c0.4-0.2,0.7-0.5,1.1-0.8l1,1
		C146.8,95.3,146.6,95.6,146.4,95.7z"/>
	<path class="st1" d="M155.1,95.7c-0.2,0.2-0.5,0.3-0.8,0.5c-0.3,0.1-0.6,0.2-0.9,0.3c-0.3,0.1-0.7,0.1-1.1,0.1
		c-0.6,0-1.2-0.1-1.7-0.3c-0.5-0.2-1-0.5-1.4-0.9c-0.4-0.4-0.7-0.9-0.9-1.4c-0.2-0.5-0.3-1.1-0.3-1.7c0-0.6,0.1-1.2,0.3-1.7
		c0.2-0.5,0.5-1,0.9-1.4c0.4-0.4,0.9-0.7,1.4-1c0.5-0.2,1.1-0.3,1.8-0.3c0.4,0,0.7,0,1.1,0.1c0.3,0.1,0.6,0.2,0.9,0.3
		c0.3,0.1,0.5,0.3,0.7,0.4c0.2,0.2,0.4,0.3,0.6,0.5l-1,1.1c-0.3-0.3-0.7-0.6-1.1-0.8c-0.4-0.2-0.8-0.3-1.3-0.3
		c-0.4,0-0.8,0.1-1.1,0.2c-0.3,0.2-0.6,0.4-0.9,0.6c-0.3,0.3-0.4,0.6-0.6,1c-0.1,0.4-0.2,0.8-0.2,1.2c0,0.4,0.1,0.8,0.2,1.2
		c0.1,0.4,0.3,0.7,0.6,1c0.3,0.3,0.6,0.5,0.9,0.7c0.3,0.2,0.7,0.2,1.1,0.2c0.5,0,1-0.1,1.3-0.3s0.7-0.5,1.1-0.8l1,1
		C155.6,95.3,155.4,95.6,155.1,95.7z"/>
	<path class="st1" d="M159,87.9v8.6h-1.5v-8.6H159z"/>
	<path class="st1" d="M169.6,93.9c-0.2,0.5-0.5,1-0.9,1.4c-0.4,0.4-0.9,0.7-1.4,1c-0.5,0.2-1.2,0.4-1.8,0.4c-0.7,0-1.3-0.1-1.8-0.3
		c-0.5-0.2-1-0.5-1.4-0.9c-0.4-0.4-0.7-0.9-0.9-1.4c-0.2-0.5-0.3-1.1-0.3-1.7c0-0.6,0.1-1.2,0.3-1.7c0.2-0.5,0.5-1,0.9-1.4
		c0.4-0.4,0.9-0.7,1.4-1c0.5-0.2,1.2-0.4,1.8-0.4c0.7,0,1.3,0.1,1.8,0.3c0.5,0.2,1,0.5,1.4,0.9c0.4,0.4,0.7,0.9,0.9,1.4
		c0.2,0.5,0.3,1.1,0.3,1.7C169.9,92.8,169.8,93.4,169.6,93.9z M168.1,91c-0.1-0.4-0.3-0.7-0.6-1c-0.3-0.3-0.6-0.5-0.9-0.7
		c-0.4-0.2-0.8-0.2-1.2-0.2c-0.4,0-0.8,0.1-1.2,0.2c-0.4,0.2-0.7,0.4-0.9,0.6c-0.3,0.3-0.5,0.6-0.6,1c-0.1,0.4-0.2,0.8-0.2,1.2
		c0,0.4,0.1,0.8,0.2,1.2c0.1,0.4,0.3,0.7,0.6,1c0.3,0.3,0.6,0.5,0.9,0.7c0.4,0.2,0.8,0.2,1.2,0.2c0.4,0,0.8-0.1,1.2-0.2
		c0.4-0.2,0.7-0.4,0.9-0.6c0.3-0.3,0.5-0.6,0.6-1c0.1-0.4,0.2-0.8,0.2-1.2C168.3,91.8,168.2,91.4,168.1,91z M164.9,87.2l1.3-2
		l1.3,0.6l-1.5,1.4H164.9z"/>
	<path class="st1" d="M177.7,87.9h1.5v8.6h-1.3l-4.7-6.1v6.1h-1.5v-8.6h1.4l4.6,5.9V87.9z"/>
</g>
<g>
	<g>
		<g>
			<path class="st1" d="M50.9,66.3l3.4-4.1c2.2,1.7,4.6,2.6,7.1,2.6c1.6,0,2.5-0.6,2.5-1.5v-0.1c0-0.9-0.7-1.4-3.7-2.1
				c-4.7-1.1-8.3-2.4-8.3-6.9v-0.1c0-4.1,3.2-7,8.5-7c3.7,0,6.7,1,9.1,2.9l-3.1,4.3c-2-1.4-4.2-2.2-6.2-2.2c-1.5,0-2.2,0.6-2.2,1.4
				v0.1c0,1,0.8,1.4,3.8,2.1c5.1,1.1,8.2,2.7,8.2,6.9v0.1c0,4.5-3.6,7.2-8.9,7.2C57.3,69.9,53.6,68.7,50.9,66.3z"/>
			<path class="st1" d="M72.1,46.6h6.2V51h-6.2V46.6z M72.2,52.5h6v17h-6V52.5z"/>
			<path class="st1" d="M80.9,52.5h6v2.4c1.1-1.4,2.7-2.8,5.1-2.8c3.6,0,5.8,2.4,5.8,6.3v11.1h-6v-9.2c0-1.9-1-2.9-2.4-2.9
				c-1.4,0-2.5,1-2.5,2.9v9.2h-6V52.5z"/>
			<path class="st1" d="M101.2,64.3v-6.9h-2v-4.8h2v-4.3h6v4.3h4v4.8h-4v5.8c0,1.2,0.5,1.7,1.6,1.7c0.8,0,1.5-0.2,2.3-0.6v4.7
				c-1.1,0.6-2.5,1-4.2,1C103.4,69.9,101.2,68.3,101.2,64.3z"/>
			<path class="st1" d="M112,61.1L112,61.1c0-5,3.6-9,8.6-9c5.9,0,8.6,4.3,8.6,9.3c0,0.4,0,0.8,0,1.2h-11.4c0.5,1.9,1.8,2.8,3.7,2.8
				c1.4,0,2.5-0.5,3.8-1.7l3.3,2.7c-1.6,2.1-4,3.5-7.4,3.5C115.7,70,112,66.4,112,61.1z M123.5,59.7c-0.2-1.9-1.3-3.1-3-3.1
				c-1.6,0-2.6,1.2-3,3.1H123.5z"/>
			<path class="st1" d="M131.1,52.5h6v2.3c1.2-1.4,2.6-2.6,5.2-2.6c4.1,0,7.6,3.4,7.6,8.8V61c0,5.5-3.5,8.9-7.5,8.9
				c-2.6,0-4.1-1.2-5.2-2.5v7.1h-6V52.5z M143.9,61.1L143.9,61.1c0-2.3-1.5-3.9-3.5-3.9c-1.9,0-3.5,1.6-3.5,3.8v0.1
				c0,2.3,1.5,3.9,3.5,3.9C142.3,64.9,143.9,63.4,143.9,61.1z"/>
			<path class="st1" d="M151.8,46.6h6v23h-6V46.6z"/>
			<path class="st1" d="M159.7,64.7L159.7,64.7c0-3.6,2.7-5.4,6.7-5.4c1.6,0,3.1,0.3,4.1,0.7v-0.3c0-1.8-1.1-2.8-3.4-2.8
				c-1.8,0-3.2,0.3-4.7,0.9l-1.2-4.2c1.9-0.8,4-1.3,6.9-1.3c3.1,0,5.1,0.7,6.5,2.1c1.3,1.3,1.8,3,1.8,5.4v9.8h-5.9v-1.8
				c-1.2,1.3-2.8,2.1-5,2.1C162.2,69.9,159.7,68.1,159.7,64.7z M170.5,63.4v-0.8c-0.6-0.3-1.4-0.4-2.3-0.4c-1.7,0-2.7,0.8-2.7,2.1
				v0.1c0,1.2,0.9,1.9,2.1,1.9C169.3,66.2,170.5,65.1,170.5,63.4z"/>
			<path class="st1" d="M177.4,67.4l2.2-3.6c2,1.3,4.1,2,5.9,2c1,0,1.5-0.3,1.5-0.9v-0.1c0-0.7-0.9-0.9-2.7-1.4c-3.4-0.9-6-2-6-5.4
				v-0.1c0-3.6,2.9-5.6,6.8-5.6c2.5,0,5.1,0.7,7,2l-2,3.8c-1.8-1-3.7-1.6-5-1.6c-0.9,0-1.4,0.3-1.4,0.8v0.1c0,0.7,1,1,2.8,1.5
				c3.4,0.9,6,2.1,6,5.4v0.1c0,3.7-2.8,5.7-7,5.7C182.6,69.9,179.8,69.1,177.4,67.4z"/>
			<path class="st1" d="M195,64.3v-6.9h-2v-4.8h2v-4.3h6v4.3h4v4.8h-4v5.8c0,1.2,0.5,1.7,1.6,1.7c0.8,0,1.5-0.2,2.3-0.6v4.7
				c-1.1,0.6-2.5,1-4.2,1C197.1,69.9,195,68.3,195,64.3z"/>
		</g>
		<g>
			<g>
				<rect x="118.2" y="77.5" class="st2" width="19.4" height="5.3"/>
			</g>
			<radialGradient id="SVGID_1_" cx="139.1684" cy="84.3504" r="23.5996" gradientUnits="userSpaceOnUse">
				<stop  offset="0.3283" style="stop-color:#E1251B"/>
				<stop  offset="0.3963" style="stop-color:#D32319"/>
				<stop  offset="0.5241" style="stop-color:#AF1D15"/>
				<stop  offset="0.6982" style="stop-color:#74130E"/>
				<stop  offset="0.9097" style="stop-color:#240604"/>
				<stop  offset="1" style="stop-color:#000000"/>
			</radialGradient>
			<rect x="118.2" y="77.5" class="st3" width="19.4" height="5.3"/>
		</g>
		<g>
			<g>
				<g>
					<path class="st4" d="M127.9,24.3c4,0,7.3,3.3,7.3,7.3s-3.3,7.3-7.3,7.3s-7.3-3.3-7.3-7.3S123.9,24.3,127.9,24.3L127.9,24.3z
						 M127.9,18.2c-7.3,0-13.3,6-13.3,13.3s6,13.3,13.3,13.3c7.3,0,13.3-6,13.3-13.3S135.3,18.2,127.9,18.2L127.9,18.2z"/>
				</g>
			</g>
			<radialGradient id="SVGID_2_" cx="135.6989" cy="22.9138" r="26.9622" gradientUnits="userSpaceOnUse">
				<stop  offset="0.6153" style="stop-color:#E1251B"/>
				<stop  offset="0.6573" style="stop-color:#DC241A"/>
				<stop  offset="0.7085" style="stop-color:#CD2219"/>
				<stop  offset="0.7645" style="stop-color:#B41E16"/>
				<stop  offset="0.824" style="stop-color:#921811"/>
				<stop  offset="0.8862" style="stop-color:#65110C"/>
				<stop  offset="0.9497" style="stop-color:#300806"/>
				<stop  offset="1" style="stop-color:#000000"/>
			</radialGradient>
			<path class="st5" d="M127.9,24.3c4,0,7.3,3.3,7.3,7.3s-3.3,7.3-7.3,7.3s-7.3-3.3-7.3-7.3S123.9,24.3,127.9,24.3L127.9,24.3z
				 M127.9,18.2c-7.3,0-13.3,6-13.3,13.3s6,13.3,13.3,13.3c7.3,0,13.3-6,13.3-13.3S135.3,18.2,127.9,18.2L127.9,18.2z"/>
		</g>
	</g>
</g>
</svg>
