<?xml version="1.0" encoding="utf-8"?>
<!-- Generator: Adobe Illustrator 22.0.1, SVG Export Plug-In . SVG Version: 6.00 Build 0)  -->
<svg version="1.1" id="Capa_1" xmlns="http://www.w3.org/2000/svg" xmlns:xlink="http://www.w3.org/1999/xlink" x="0px" y="0px"
	 viewBox="0 0 158 50.9" style="enable-background:new 0 0 158 50.9;" xml:space="preserve">
<style type="text/css">
	.st0{fill:#FFFFFF;}
	.st1{fill:#E1251B;}
</style>
<g>
	<g>
		<g>
			<path class="st0" d="M17.7,37.7l2.7-3.2c1.7,1.4,3.6,2.1,5.7,2.1c1.3,0,2-0.4,2-1.2v-0.1c0-0.7-0.6-1.1-2.9-1.7
				c-3.7-0.8-6.6-1.9-6.6-5.5v-0.1c0-3.2,2.6-5.6,6.8-5.6c3,0,5.3,0.8,7.2,2.3l-2.4,3.4c-1.6-1.1-3.3-1.7-4.9-1.7
				c-1.2,0-1.7,0.5-1.7,1.1v0.1c0,0.8,0.6,1.1,3,1.7c4,0.9,6.5,2.2,6.5,5.4v0.1c0,3.6-2.8,5.7-7.1,5.7
				C22.8,40.6,19.9,39.6,17.7,37.7z"/>
			<path class="st0" d="M34.6,22.1h4.9v3.5h-4.9V22.1z M34.7,26.8h4.7v13.5h-4.7V26.8z"/>
			<path class="st0" d="M41.6,26.8h4.7v1.9c0.9-1.1,2.1-2.2,4-2.2c2.9,0,4.6,1.9,4.6,5v8.8h-4.7V33c0-1.5-0.8-2.3-1.9-2.3
				c-1.1,0-2,0.8-2,2.3v7.3h-4.7V26.8z"/>
			<path class="st0" d="M57.7,36.1v-5.5h-1.6v-3.8h1.6v-3.4h4.7v3.4h3.1v3.8h-3.1v4.6c0,0.9,0.4,1.3,1.3,1.3c0.6,0,1.2-0.2,1.8-0.4
				v3.7c-0.8,0.5-2,0.8-3.3,0.8C59.4,40.6,57.7,39.3,57.7,36.1z"/>
			<path class="st0" d="M66.2,33.6L66.2,33.6c0-4,2.8-7.1,6.8-7.1c4.7,0,6.8,3.4,6.8,7.4c0,0.3,0,0.6,0,1h-9
				c0.4,1.5,1.4,2.2,2.9,2.2c1.1,0,2-0.4,3-1.4l2.6,2.2c-1.3,1.6-3.2,2.7-5.9,2.7C69.2,40.6,66.2,37.8,66.2,33.6z M75.4,32.4
				c-0.2-1.5-1-2.4-2.3-2.4c-1.2,0-2.1,1-2.3,2.4H75.4z"/>
			<path class="st0" d="M81.4,26.8h4.7v1.8c0.9-1.1,2.1-2.1,4.1-2.1c3.2,0,6,2.7,6,7v0c0,4.4-2.8,7.1-6,7.1c-2,0-3.2-0.9-4.1-1.9
				v5.6h-4.7V26.8z M91.6,33.5L91.6,33.5c0-1.8-1.2-3.1-2.8-3.1c-1.5,0-2.7,1.3-2.7,3v0.1c0,1.8,1.2,3.1,2.7,3.1
				C90.4,36.6,91.6,35.4,91.6,33.5z"/>
			<path class="st0" d="M97.9,22.1h4.7v18.2h-4.7V22.1z"/>
			<path class="st0" d="M104.1,36.4L104.1,36.4c0-2.8,2.1-4.3,5.3-4.3c1.2,0,2.5,0.2,3.2,0.5v-0.2c0-1.4-0.9-2.2-2.7-2.2
				c-1.4,0-2.5,0.3-3.7,0.7l-1-3.3c1.5-0.6,3.1-1,5.5-1c2.4,0,4.1,0.6,5.1,1.6c1,1,1.4,2.4,1.4,4.3v7.8h-4.7v-1.4
				c-0.9,1-2.2,1.7-4,1.7C106.1,40.6,104.1,39.1,104.1,36.4z M112.7,35.4v-0.6c-0.5-0.2-1.1-0.3-1.8-0.3c-1.4,0-2.2,0.7-2.2,1.7v0.1
				c0,0.9,0.7,1.5,1.7,1.5C111.7,37.6,112.7,36.7,112.7,35.4z"/>
			<path class="st0" d="M118.2,38.6l1.8-2.9c1.5,1,3.2,1.5,4.6,1.5c0.8,0,1.2-0.2,1.2-0.7v0c0-0.5-0.7-0.7-2.2-1.1
				c-2.7-0.7-4.8-1.6-4.8-4.3V31c0-2.9,2.3-4.5,5.4-4.5c2,0,4,0.6,5.6,1.6l-1.6,3c-1.4-0.8-2.9-1.2-4-1.2c-0.7,0-1.1,0.3-1.1,0.6
				v0.1c0,0.5,0.8,0.8,2.2,1.2c2.7,0.7,4.8,1.7,4.8,4.3v0c0,3-2.2,4.5-5.5,4.5C122.4,40.6,120.1,39.9,118.2,38.6z"/>
			<path class="st0" d="M132.2,36.1v-5.5h-1.6v-3.8h1.6v-3.4h4.7v3.4h3.1v3.8h-3.1v4.6c0,0.9,0.4,1.3,1.3,1.3c0.6,0,1.2-0.2,1.8-0.4
				v3.7c-0.8,0.5-2,0.8-3.3,0.8C133.9,40.6,132.2,39.3,132.2,36.1z"/>
		</g>
		<g>
			<g>
				<rect x="71.2" y="46.6" class="st1" width="15.4" height="4.2"/>
			</g>
			<rect x="71.2" y="46.6" class="st1" width="15.4" height="4.2"/>
		</g>
		<g>
			<g>
				<g>
					<path class="st1" d="M78.9,4.3c3.2,0,5.8,2.6,5.8,5.8s-2.6,5.8-5.8,5.8s-5.8-2.6-5.8-5.8S75.7,4.3,78.9,4.3L78.9,4.3z
						 M78.9-0.5c-5.8,0-10.6,4.7-10.6,10.6s4.7,10.6,10.6,10.6c5.8,0,10.6-4.7,10.6-10.6S84.8-0.5,78.9-0.5L78.9-0.5z"/>
				</g>
			</g>
			<path class="st1" d="M78.9,4.3c3.2,0,5.8,2.6,5.8,5.8s-2.6,5.8-5.8,5.8s-5.8-2.6-5.8-5.8S75.7,4.3,78.9,4.3L78.9,4.3z M78.9-0.5
				c-5.8,0-10.6,4.7-10.6,10.6s4.7,10.6,10.6,10.6c5.8,0,10.6-4.7,10.6-10.6S84.8-0.5,78.9-0.5L78.9-0.5z"/>
		</g>
	</g>
</g>
</svg>
